<?xml version="1.0" encoding="UTF-8" standalone="no"?>
<svg
   xmlns:dc="http://purl.org/dc/elements/1.1/"
   xmlns:cc="http://creativecommons.org/ns#"
   xmlns:rdf="http://www.w3.org/1999/02/22-rdf-syntax-ns#"
   xmlns:svg="http://www.w3.org/2000/svg"
   xmlns="http://www.w3.org/2000/svg"
   xmlns:xlink="http://www.w3.org/1999/xlink"
   xmlns:sodipodi="http://sodipodi.sourceforge.net/DTD/sodipodi-0.dtd"
   xmlns:inkscape="http://www.inkscape.org/namespaces/inkscape"
   sodipodi:docname="about-img.svg"
   inkscape:version="1.0 (4035a4fb49, 2020-05-01)"
   id="svg3658"
   version="1.1"
   viewBox="0 0 441.21464 173.4734"
   height="173.4734mm"
   width="441.21463mm">
  <defs
     id="defs3652">
    <linearGradient
       id="linearGradient3904"
       inkscape:collect="always">
      <stop
         id="stop3900"
         offset="0"
         style="stop-color:#c64dc4;stop-opacity:1" />
      <stop
         id="stop3902"
         offset="1"
         style="stop-color:#0d8696;stop-opacity:0.22352941" />
    </linearGradient>
    <radialGradient
       gradientUnits="userSpaceOnUse"
       gradientTransform="matrix(1,0,0,0.31805298,0,155.93731)"
       r="169.58718"
       fy="228.66485"
       fx="238.08046"
       cy="228.66485"
       cx="238.08046"
       id="radialGradient3908"
       xlink:href="#linearGradient3904"
       inkscape:collect="always" />
  </defs>
  <sodipodi:namedview
     fit-margin-bottom="0"
     fit-margin-right="0"
     fit-margin-left="0"
     fit-margin-top="0"
     showgrid="false"
     inkscape:document-rotation="0"
     inkscape:current-layer="layer1"
     inkscape:document-units="mm"
     inkscape:cy="521.80343"
     inkscape:cx="995.85679"
     inkscape:zoom="0.7"
     inkscape:pageshadow="2"
     inkscape:pageopacity="0.0"
     borderopacity="1.0"
     bordercolor="#666666"
     pagecolor="#ffffff"
     id="base" />
  <metadata
     id="metadata3655">
    <rdf:RDF>
      <cc:Work
         rdf:about="">
        <dc:format>image/svg+xml</dc:format>
        <dc:type
           rdf:resource="http://purl.org/dc/dcmitype/StillImage" />
        <dc:title></dc:title>
      </cc:Work>
    </rdf:RDF>
  </metadata>
  <g
     transform="translate(-16.350745,-140.54697)"
     id="layer1"
     inkscape:groupmode="layer"
     inkscape:label="Layer 1">
    <path
       sodipodi:nodetypes="cccc"
       id="path3483"
       d="m 436.88035,147.43069 h 11.95894 l 0,81.79988 h -30.35948"
       style="fill:none;stroke:#000000;stroke-width:1.5;stroke-linecap:butt;stroke-linejoin:miter;stroke-miterlimit:4;stroke-dasharray:none;stroke-opacity:1" />
    <path
       sodipodi:nodetypes="cccc"
       id="path3481"
       d="m 30.302695,147.43069 h -11.95892 l 0,81.98887 h 39.861558"
       style="fill:none;stroke:#000000;stroke-width:1.5;stroke-linecap:butt;stroke-linejoin:miter;stroke-miterlimit:4;stroke-dasharray:none;stroke-opacity:1" />
    <path
       d="m 98.912388,174.97714 c -13.943034,0.0103 -30.378012,11.77691 -30.167096,30.82711 l -0.0018,48.18076 c 0.256127,11.5612 10.483179,28.38233 32.237618,28.36095 h 6.86091 l 5.27654,-8.81966 -4.78862,-9.50096 h -7.34879 c -6.878856,0.0137 -10.685587,-3.26914 -10.922113,-10.39339 V 202.545 c 0.165727,-4.45636 3.131868,-9.21415 10.393393,-8.98288 l 11.03744,-0.0178 -4.53669,-8.53933 4.80991,-10.00483 z m 276.909912,0.0444 -9.40693,0.005 4.60234,8.65643 -4.66621,9.70854 9.95339,-0.004 c 4.68536,-0.23209 9.48323,3.79525 9.51338,9.07159 v 51.79487 c 0,4.74046 -2.94012,9.70804 -10.08113,9.78305 l -5.68106,-0.004 -5.20557,8.69902 4.84717,9.6145 h 6.09446 c 19.75829,0.1054 31.61345,-14.83239 31.6255,-31.66631 l -0.15081,-44.25974 c 0.0103,-19.43289 -15.11967,-31.49239 -31.44453,-31.40018 z m -249.52834,0.004 -4.89686,9.71564 5.25348,8.77708 14.93716,-0.0248 -4.51184,-8.48788 4.78508,-9.95338 z m 224.94472,0.009 -14.93717,0.007 4.59346,8.64223 -4.6733,9.71919 15.58831,-0.005 4.76201,-9.4495 z m -30.11387,0.0142 -13.17892,0.007 4.58637,8.62804 -4.67508,9.72806 13.82474,-0.005 4.76733,-9.45838 z m -28.35561,0.0142 -8.59433,0.004 c -7.69692,-0.2108 -15.63902,2.76013 -22.2452,10.2692 l -12.22438,14.0199 14.03054,14.34458 12.71584,-15.49428 c 1.82141,-2.09501 3.97455,-4.75794 7.71078,-4.78685 l 9.15143,-0.004 4.77266,-9.46725 z m -136.37557,0.0142 -4.87379,9.66419 5.22331,8.72739 13.17892,-0.0231 -4.48346,-8.43997 4.76024,-9.90549 z m 28.3361,0.0479 -4.84718,9.61628 5.19492,8.67949 6.95673,-0.0124 c 2.47977,0.0752 4.59842,1.70076 6.14413,3.17053 l 65.63734,77.48915 c 4.25296,4.22236 11.90157,8.43544 20.02032,8.28029 h 12.83294 l -4.74781,-9.88064 4.50829,-8.48079 -12.12325,-0.009 c -2.04438,-0.1054 -3.95038,-0.76425 -5.66332,-2.19471 l -65.59298,-77.51736 c -5.48984,-5.36557 -11.00143,-8.94836 -21.28356,-9.12837 z m 28.13383,69.66837 -13.40956,15.18201 c -1.75211,1.94949 -3.63436,3.7363 -6.69414,4.05056 h -11.4047 l 4.69459,9.76531 -4.54733,8.5553 h 10.55307 c 10.61951,-0.0103 17.54456,-5.39279 21.84422,-10.04032 l 12.06648,-13.96135 z m 98.73013,19.20241 -5.22863,8.73804 4.84717,9.61451 h 15.57945 l -4.74782,-9.88064 4.49765,-8.46127 z m 30.1121,0.0195 -5.21622,8.71853 4.84541,9.6145 h 13.81941 l -4.74782,-9.88064 4.48878,-8.44352 z m -218.83608,0.0106 4.69458,9.76531 -4.54732,8.5553 h 13.18601 l 5.27832,-8.81966 -4.78863,-9.50095 z m 28.36271,0 4.69282,9.76531 -4.54556,8.5553 h 14.94782 l 5.27653,-8.81966 -4.78862,-9.50095 z"
       style="fill:url(#radialGradient3908);stroke:none;stroke-width:0.5;stroke-linecap:butt;stroke-linejoin:miter;stroke-miterlimit:4;stroke-dasharray:none;stroke-opacity:1;fill-opacity:1"
       id="path3433" />
    <ellipse
       ry="22.05932"
       rx="23.84861"
       cy="228.74452"
       cx="237.63817"
       id="path3427"
       style="fill:#e6e6e6;stroke:none;stroke-width:3.7618;stroke-linecap:round;stroke-linejoin:round" />
    <g
       transform="matrix(2.5335994,0,0,2.5335994,34.820627,-172.44018)"
       style="font-size:7.73993px;line-height:1.25;font-family:Bahnschrift;-inkscape-font-specification:Bahnschrift;text-align:center;letter-spacing:0px;text-anchor:middle;stroke-width:1.16099"
       id="text3411"
       aria-label="PROTOTYPE">
      <path
         id="path3766"
         style="font-style:normal;font-variant:normal;font-weight:normal;font-stretch:normal;font-size:7.73993px;font-family:nebula;-inkscape-font-specification:nebula;stroke-width:1.16099"
         d="m 87.124215,187.32328 v 0 q 0,-0.0113 0.0076,-0.0189 0.01134,-0.0113 0.02268,-0.0113 h 4.289464 q 0.445953,0 0.759631,0.31746 0.317458,0.31368 0.317458,0.75963 v 0.37792 q 0,0.44974 -0.317458,0.7672 -0.313678,0.31367 -0.759631,0.31367 h -3.563845 v 1.20937 q 0,0.0151 -0.01134,0.0265 -0.0076,0.008 -0.02268,0.008 h -0.691605 q -0.01134,0 -0.02268,-0.008 -0.0076,-0.0113 -0.0076,-0.0265 z m 4.319698,1.8594 v 0 q 0.132274,0 0.226755,-0.0945 0.09448,-0.0983 0.09448,-0.23054 v -0.59334 q 0,-0.13605 -0.09448,-0.23054 -0.09448,-0.0945 -0.226755,-0.0945 h -3.563845 v 1.24338 z" />
      <path
         id="path3768"
         style="font-style:normal;font-variant:normal;font-weight:normal;font-stretch:normal;font-size:7.73993px;font-family:nebula;-inkscape-font-specification:nebula;stroke-width:1.16099"
         d="m 99.051569,188.75184 v 0 q 0,0.3288 -0.173846,0.59335 -0.173847,0.26077 -0.46107,0.38926 l 0.01512,0.0302 0.600902,1.26227 q 0.0038,0.0151 -0.0038,0.0302 -0.0076,0.0151 -0.02645,0.0151 h -0.76719 q -0.0189,0 -0.03023,-0.0189 l -0.582007,-1.22071 h -3.212373 v 1.20937 q 0,0.0113 -0.01134,0.0227 -0.0076,0.008 -0.02268,0.008 H 93.685 q -0.01134,0 -0.02268,-0.008 -0.0076,-0.0113 -0.0076,-0.0227 v -3.71502 q 0,-0.0151 0.0076,-0.0227 0.01134,-0.0113 0.02268,-0.0113 h 4.289463 q 0.445953,0 0.759632,0.31746 0.317458,0.31368 0.317458,0.76341 z m -4.640935,0.43084 v 0 h 3.563845 q 0.132274,0 0.226756,-0.0945 0.09448,-0.0945 0.09448,-0.23054 v -0.59334 q 0,-0.13228 -0.09448,-0.22676 -0.09448,-0.0945 -0.226756,-0.0945 h -3.563845 z" />
      <path
         id="path3770"
         style="font-style:normal;font-variant:normal;font-weight:normal;font-stretch:normal;font-size:7.73993px;font-family:nebula;-inkscape-font-specification:nebula;stroke-width:1.16099"
         d="m 104.50504,187.29305 v 0 q 0.44974,0 0.76342,0.31746 0.31745,0.31368 0.31745,0.76341 v 1.61752 q 0,0.44973 -0.31745,0.76719 -0.31368,0.31368 -0.76342,0.31368 h -3.23882 q -0.44596,0 -0.76341,-0.31368 -0.31746,-0.31746 -0.31746,-0.76719 v -1.61752 q 0,-0.44973 0.31746,-0.76341 0.31745,-0.31746 0.76341,-0.31746 z m 0.32502,0.97127 v 0 q 0,-0.13228 -0.0945,-0.22676 -0.0945,-0.0983 -0.23054,-0.0983 h -3.23882 q -0.13228,0 -0.23054,0.0983 -0.0945,0.0945 -0.0945,0.22676 v 1.83672 q 0,0.13228 0.0945,0.23054 0.0983,0.0945 0.23054,0.0945 h 3.23882 q 0.13606,0 0.23054,-0.0945 0.0945,-0.0983 0.0945,-0.23054 z" />
      <path
         id="path3772"
         style="font-style:normal;font-variant:normal;font-weight:normal;font-stretch:normal;font-size:7.73993px;font-family:nebula;-inkscape-font-specification:nebula;stroke-width:1.16099"
         d="m 106.71591,187.32706 v 0 q 0,-0.0151 0.008,-0.0227 0.0113,-0.0113 0.0227,-0.0113 h 5.33632 q 0.0113,0 0.0189,0.0113 0.0113,0.008 0.0113,0.0227 v 0.58201 q 0,0.0113 -0.0113,0.0227 -0.008,0.008 -0.0189,0.008 h -2.29024 v 3.099 q 0,0.0151 -0.0113,0.0265 -0.008,0.008 -0.0189,0.008 h -0.69161 q -0.0151,0 -0.0264,-0.008 -0.008,-0.0113 -0.008,-0.0265 v -3.099 h -2.29023 q -0.0113,0 -0.0227,-0.008 -0.008,-0.0113 -0.008,-0.0227 z" />
      <path
         id="path3774"
         style="font-style:normal;font-variant:normal;font-weight:normal;font-stretch:normal;font-size:7.73993px;font-family:nebula;-inkscape-font-specification:nebula;stroke-width:1.16099"
         d="m 117.56618,187.29305 v 0 q 0.44973,0 0.76341,0.31746 0.31746,0.31368 0.31746,0.76341 v 1.61752 q 0,0.44973 -0.31746,0.76719 -0.31368,0.31368 -0.76341,0.31368 h -3.23883 q -0.44595,0 -0.76341,-0.31368 -0.31746,-0.31746 -0.31746,-0.76719 v -1.61752 q 0,-0.44973 0.31746,-0.76341 0.31746,-0.31746 0.76341,-0.31746 z m 0.32501,0.97127 v 0 q 0,-0.13228 -0.0945,-0.22676 -0.0945,-0.0983 -0.23053,-0.0983 h -3.23883 q -0.13227,0 -0.23054,0.0983 -0.0945,0.0945 -0.0945,0.22676 v 1.83672 q 0,0.13228 0.0945,0.23054 0.0983,0.0945 0.23054,0.0945 h 3.23883 q 0.13605,0 0.23053,-0.0945 0.0945,-0.0983 0.0945,-0.23054 z" />
      <path
         id="path3776"
         style="font-style:normal;font-variant:normal;font-weight:normal;font-stretch:normal;font-size:7.73993px;font-family:nebula;-inkscape-font-specification:nebula;stroke-width:1.16099"
         d="m 119.77705,187.32706 v 0 q 0,-0.0151 0.008,-0.0227 0.0113,-0.0113 0.0227,-0.0113 h 5.33632 q 0.0113,0 0.0189,0.0113 0.0113,0.008 0.0113,0.0227 v 0.58201 q 0,0.0113 -0.0113,0.0227 -0.008,0.008 -0.0189,0.008 h -2.29023 v 3.099 q 0,0.0151 -0.0113,0.0265 -0.008,0.008 -0.0189,0.008 h -0.6916 q -0.0151,0 -0.0265,-0.008 -0.008,-0.0113 -0.008,-0.0265 v -3.099 h -2.29023 q -0.0113,0 -0.0227,-0.008 -0.008,-0.0113 -0.008,-0.0227 z" />
      <path
         id="path3778"
         style="font-style:normal;font-variant:normal;font-weight:normal;font-stretch:normal;font-size:7.73993px;font-family:nebula;-inkscape-font-specification:nebula;stroke-width:1.16099"
         d="m 131.7951,187.32328 v 0 q 0,-0.0113 -0.0113,-0.0189 -0.008,-0.0113 -0.0227,-0.0113 h -0.69161 q -0.0113,0 -0.0227,0.0113 -0.008,0.008 -0.008,0.0189 v 1.69689 h -2.88358 q -0.18518,0 -0.291,-0.18518 l -0.72562,-1.52305 q -0.0113,-0.0189 -0.0302,-0.0189 h -0.76719 q -0.0151,0 -0.0265,0.0151 -0.008,0.0113 -0.004,0.0302 l 0.89946,1.88207 q 0.12472,0.25699 0.35903,0.40816 0.2381,0.14739 0.51776,0.14739 h 2.95161 v 1.26228 q 0,0.0151 0.008,0.0265 0.0113,0.008 0.0227,0.008 h 0.69161 q 0.0151,0 0.0227,-0.008 0.0113,-0.0113 0.0113,-0.0265 z" />
      <path
         id="path3780"
         style="font-style:normal;font-variant:normal;font-weight:normal;font-stretch:normal;font-size:7.73993px;font-family:nebula;-inkscape-font-specification:nebula;stroke-width:1.16099"
         d="m 132.92888,187.32328 v 0 q 0,-0.0113 0.008,-0.0189 0.0113,-0.0113 0.0227,-0.0113 h 4.28947 q 0.44595,0 0.75963,0.31746 0.31746,0.31368 0.31746,0.75963 v 0.37792 q 0,0.44974 -0.31746,0.7672 -0.31368,0.31367 -0.75963,0.31367 h -3.56385 v 1.20937 q 0,0.0151 -0.0113,0.0265 -0.008,0.008 -0.0227,0.008 h -0.69161 q -0.0113,0 -0.0227,-0.008 -0.008,-0.0113 -0.008,-0.0265 z m 4.3197,1.8594 v 0 q 0.13227,0 0.22675,-0.0945 0.0945,-0.0983 0.0945,-0.23054 v -0.59334 q 0,-0.13605 -0.0945,-0.23054 -0.0945,-0.0945 -0.22675,-0.0945 h -3.56385 v 1.24338 z" />
      <path
         id="path3782"
         style="font-style:normal;font-variant:normal;font-weight:normal;font-stretch:normal;font-size:7.73993px;font-family:nebula;-inkscape-font-specification:nebula;stroke-width:1.16099"
         d="m 140.2153,188.26432 v 0 q 0,-0.13228 0.0945,-0.22676 0.0945,-0.0983 0.23054,-0.0983 h 4.28568 q 0.0151,0 0.0227,-0.008 0.0113,-0.0113 0.0113,-0.0227 v -0.58201 q 0,-0.0151 -0.0113,-0.0227 -0.008,-0.0113 -0.0227,-0.0113 h -4.28568 q -0.44974,0 -0.76719,0.31746 -0.31368,0.31368 -0.31368,0.76341 v 1.61752 q 0,0.44973 0.31368,0.76719 0.31745,0.31368 0.76719,0.31368 h 4.28568 q 0.0151,0 0.0227,-0.008 0.0113,-0.0113 0.0113,-0.0265 v -0.58201 q 0,-0.0113 -0.0113,-0.0189 -0.008,-0.0113 -0.0227,-0.0113 h -4.28568 q -0.13606,0 -0.23054,-0.0945 -0.0945,-0.0983 -0.0945,-0.23054 v -0.59334 h 4.07027 q 0.0151,0 0.0227,-0.008 0.0113,-0.0113 0.0113,-0.0265 v -0.582 q 0,-0.0151 -0.0113,-0.0227 -0.008,-0.0113 -0.0227,-0.0113 h -4.07027 z" />
    </g>
    <g
       transform="matrix(2.5335994,0,0,2.5335994,-19.442959,-213.97941)"
       style="font-size:7.73993px;line-height:1.25;font-family:Bahnschrift;-inkscape-font-specification:Bahnschrift;text-align:center;letter-spacing:0px;text-anchor:middle;stroke-width:1.16099"
       id="text3417"
       aria-label="PROCESS">
      <path
         id="path3738"
         style="font-style:normal;font-variant:normal;font-weight:normal;font-stretch:normal;font-size:7.73993px;font-family:nebula;-inkscape-font-specification:nebula;stroke-width:1.16099"
         d="m 23.031138,140.57771 v 0 q 0,-0.0113 0.0076,-0.0189 0.01134,-0.0113 0.02268,-0.0113 h 4.289463 q 0.445953,0 0.759632,0.31746 0.317458,0.31368 0.317458,0.75963 v 0.37793 q 0,0.44973 -0.317458,0.76719 -0.313679,0.31368 -0.759632,0.31368 H 23.78699 v 1.20936 q 0,0.0151 -0.01134,0.0265 -0.0076,0.008 -0.02267,0.008 h -0.691605 q -0.01134,0 -0.02268,-0.008 -0.0076,-0.0113 -0.0076,-0.0265 z m 4.319697,1.8594 v 0 q 0.132274,0 0.226756,-0.0945 0.09448,-0.0983 0.09448,-0.23053 v -0.59335 q 0,-0.13605 -0.09448,-0.23053 -0.09448,-0.0945 -0.226756,-0.0945 H 23.78699 v 1.24338 z" />
      <path
         id="path3740"
         style="font-style:normal;font-variant:normal;font-weight:normal;font-stretch:normal;font-size:7.73993px;font-family:nebula;-inkscape-font-specification:nebula;stroke-width:1.16099"
         d="m 34.958491,142.00627 v 0 q 0,0.32879 -0.173846,0.59334 -0.173846,0.26077 -0.46107,0.38927 l 0.01512,0.0302 0.600903,1.26228 q 0.0038,0.0151 -0.0038,0.0302 -0.0076,0.0151 -0.02645,0.0151 H 34.14217 q -0.0189,0 -0.03023,-0.0189 l -0.582006,-1.2207 H 30.31756 v 1.20936 q 0,0.0113 -0.01134,0.0227 -0.0076,0.008 -0.02267,0.008 h -0.691605 q -0.01134,0 -0.02268,-0.008 -0.0076,-0.0113 -0.0076,-0.0227 v -3.71501 q 0,-0.0151 0.0076,-0.0227 0.01134,-0.0113 0.02268,-0.0113 h 4.289463 q 0.445953,0 0.759632,0.31746 0.317458,0.31368 0.317458,0.76341 z m -4.640935,0.43084 v 0 h 3.563845 q 0.132274,0 0.226756,-0.0945 0.09448,-0.0945 0.09448,-0.23053 v -0.59335 q 0,-0.13227 -0.09448,-0.22675 -0.09448,-0.0945 -0.226756,-0.0945 h -3.563845 z" />
      <path
         id="path3742"
         style="font-style:normal;font-variant:normal;font-weight:normal;font-stretch:normal;font-size:7.73993px;font-family:nebula;-inkscape-font-specification:nebula;stroke-width:1.16099"
         d="m 40.411967,140.54747 v 0 q 0.449733,0 0.763411,0.31746 0.317458,0.31368 0.317458,0.76341 v 1.61753 q 0,0.44973 -0.317458,0.76719 -0.313678,0.31368 -0.763411,0.31368 h -3.238828 q -0.445953,0 -0.763411,-0.31368 -0.317458,-0.31746 -0.317458,-0.76719 v -1.61753 q 0,-0.44973 0.317458,-0.76341 0.317458,-0.31746 0.763411,-0.31746 z m 0.325017,0.97127 v 0 q 0,-0.13227 -0.09448,-0.22675 -0.09448,-0.0983 -0.230535,-0.0983 h -3.238828 q -0.132274,0 -0.230535,0.0983 -0.09448,0.0945 -0.09448,0.22675 v 1.83673 q 0,0.13227 0.09448,0.23053 0.09826,0.0945 0.230535,0.0945 h 3.238828 q 0.136054,0 0.230535,-0.0945 0.09448,-0.0983 0.09448,-0.23053 z" />
      <path
         id="path3744"
         style="font-style:normal;font-variant:normal;font-weight:normal;font-stretch:normal;font-size:7.73993px;font-family:nebula;-inkscape-font-specification:nebula;stroke-width:1.16099"
         d="m 43.703704,143.68048 v 0 q -0.136053,0 -0.230535,-0.0945 -0.09448,-0.0983 -0.09448,-0.23053 v -1.83673 q 0,-0.13227 0.09448,-0.22675 0.09448,-0.0983 0.230535,-0.0983 h 4.285684 q 0.01512,0 0.02268,-0.008 0.01134,-0.0113 0.01134,-0.0227 v -0.582 q 0,-0.0151 -0.01134,-0.0227 -0.0076,-0.0113 -0.02268,-0.0113 h -4.285684 q -0.449732,0 -0.76719,0.31746 -0.313679,0.31368 -0.313679,0.76341 v 1.61753 q 0,0.44973 0.313679,0.76719 0.317458,0.31368 0.76719,0.31368 h 4.285684 q 0.01512,0 0.02268,-0.008 0.01134,-0.0113 0.01134,-0.0265 v -0.582 q 0,-0.0113 -0.01134,-0.0189 -0.0076,-0.0113 -0.02268,-0.0113 z" />
      <path
         id="path3746"
         style="font-style:normal;font-variant:normal;font-weight:normal;font-stretch:normal;font-size:7.73993px;font-family:nebula;-inkscape-font-specification:nebula;stroke-width:1.16099"
         d="m 49.909255,141.51874 v 0 q 0,-0.13227 0.09448,-0.22675 0.09448,-0.0983 0.230536,-0.0983 h 4.285684 q 0.01512,0 0.02267,-0.008 0.01134,-0.0113 0.01134,-0.0227 v -0.582 q 0,-0.0151 -0.01134,-0.0227 -0.0076,-0.0113 -0.02267,-0.0113 h -4.285684 q -0.449733,0 -0.767191,0.31746 -0.313679,0.31368 -0.313679,0.76341 v 1.61753 q 0,0.44973 0.313679,0.76719 0.317458,0.31368 0.767191,0.31368 h 4.285684 q 0.01512,0 0.02267,-0.008 0.01134,-0.0113 0.01134,-0.0265 v -0.582 q 0,-0.0113 -0.01134,-0.0189 -0.0076,-0.0113 -0.02267,-0.0113 h -4.285684 q -0.136054,0 -0.230536,-0.0945 -0.09448,-0.0983 -0.09448,-0.23053 v -0.59335 h 4.070266 q 0.01512,0 0.02268,-0.008 0.01134,-0.0113 0.01134,-0.0265 v -0.58201 q 0,-0.0151 -0.01134,-0.0227 -0.0076,-0.0113 -0.02268,-0.0113 h -4.070266 z" />
      <path
         id="path3748"
         style="font-style:normal;font-variant:normal;font-weight:normal;font-stretch:normal;font-size:7.73993px;font-family:nebula;-inkscape-font-specification:nebula;stroke-width:1.16099"
         d="m 56.439822,141.51874 v 0 q 0,-0.13605 0.09448,-0.23053 0.09448,-0.0945 0.226755,-0.0945 h 4.074046 q 0.01134,0 0.0189,-0.008 0.01134,-0.0113 0.01134,-0.0227 v -0.58578 q 0,-0.0113 -0.01134,-0.0189 -0.0076,-0.0113 -0.0189,-0.0113 h -4.074046 q -0.445953,0 -0.763411,0.31746 -0.313678,0.31368 -0.313678,0.75963 v 0.0567 q 0,0.44596 0.313678,0.76341 0.317458,0.31368 0.763411,0.31368 h 3.242608 q 0.132274,0 0.226756,0.0983 0.09448,0.0945 0.09448,0.22676 v 0.27211 q 0,0.13227 -0.09448,0.22675 -0.09448,0.0945 -0.226756,0.0945 H 55.92962 q -0.01134,0 -0.02268,0.0113 -0.0076,0.008 -0.0076,0.0227 v 0.582 q 0,0.0151 0.0076,0.0265 0.01134,0.008 0.02268,0.008 h 4.074045 q 0.445953,0 0.759632,-0.31746 0.317458,-0.31746 0.317458,-0.76341 v -0.0529 q 0,-0.44973 -0.317458,-0.76341 -0.313679,-0.31746 -0.759632,-0.31746 h -3.242608 q -0.132274,0 -0.226755,-0.0945 -0.09448,-0.0945 -0.09448,-0.23054 z" />
      <path
         id="path3750"
         style="font-style:normal;font-variant:normal;font-weight:normal;font-stretch:normal;font-size:7.73993px;font-family:nebula;-inkscape-font-specification:nebula;stroke-width:1.16099"
         d="m 62.970385,141.51874 v 0 q 0,-0.13605 0.09448,-0.23053 0.09448,-0.0945 0.226756,-0.0945 h 4.074045 q 0.01134,0 0.0189,-0.008 0.01134,-0.0113 0.01134,-0.0227 v -0.58578 q 0,-0.0113 -0.01134,-0.0189 -0.0076,-0.0113 -0.0189,-0.0113 h -4.074045 q -0.445953,0 -0.763411,0.31746 -0.313679,0.31368 -0.313679,0.75963 v 0.0567 q 0,0.44596 0.313679,0.76341 0.317458,0.31368 0.763411,0.31368 h 3.242607 q 0.132274,0 0.226756,0.0983 0.09448,0.0945 0.09448,0.22676 v 0.27211 q 0,0.13227 -0.09448,0.22675 -0.09448,0.0945 -0.226756,0.0945 h -4.074045 q -0.01134,0 -0.02268,0.0113 -0.0076,0.008 -0.0076,0.0227 v 0.582 q 0,0.0151 0.0076,0.0265 0.01134,0.008 0.02268,0.008 h 4.074045 q 0.445953,0 0.759632,-0.31746 0.317458,-0.31746 0.317458,-0.76341 v -0.0529 q 0,-0.44973 -0.317458,-0.76341 -0.313679,-0.31746 -0.759632,-0.31746 h -3.242607 q -0.132274,0 -0.226756,-0.0945 -0.09448,-0.0945 -0.09448,-0.23054 z" />
    </g>
    <g
       transform="matrix(2.5335994,0,0,2.5335994,85.634422,-214.05501)"
       style="font-size:7.73993px;line-height:1.25;font-family:Bahnschrift;-inkscape-font-specification:Bahnschrift;text-align:center;letter-spacing:0px;text-anchor:middle;stroke-width:1.16099"
       id="text3421"
       aria-label="FUTURE">
      <path
         id="path3753"
         style="font-style:normal;font-variant:normal;font-weight:normal;font-stretch:normal;font-size:7.73993px;font-family:nebula;-inkscape-font-specification:nebula;stroke-width:1.16099"
         d="m 98.424027,141.62936 v 0 q 0,-0.13228 0.09448,-0.22676 0.09826,-0.0983 0.230535,-0.0983 h 4.285688 q 0.0151,0 0.0227,-0.008 0.0113,-0.0113 0.0113,-0.0227 v -0.582 q 0,-0.0151 -0.0113,-0.0227 -0.008,-0.0113 -0.0227,-0.0113 h -4.391507 q -0.404381,0 -0.691605,0.28723 -0.283445,0.28344 -0.283445,0.68405 v 2.77397 q 0,0.0151 0.0076,0.0265 0.01134,0.008 0.02646,0.008 h 0.691605 q 0.01134,0 0.0189,-0.008 0.01134,-0.0113 0.01134,-0.0265 v -1.20936 h 4.074042 q 0.0113,0 0.0189,-0.008 0.0113,-0.0113 0.0113,-0.0227 v -0.58201 q 0,-0.0151 -0.0113,-0.0227 -0.008,-0.0113 -0.0189,-0.0113 h -4.074042 z" />
      <path
         id="path3755"
         style="font-style:normal;font-variant:normal;font-weight:normal;font-stretch:normal;font-size:7.73993px;font-family:nebula;-inkscape-font-specification:nebula;stroke-width:1.16099"
         d="m 109.59931,140.6921 v 0 q 0,-0.0151 -0.0113,-0.0227 -0.008,-0.0113 -0.0227,-0.0113 h -0.68782 q -0.0151,0 -0.0265,0.0113 -0.008,0.008 -0.008,0.0227 v 2.77398 q 0,0.13605 -0.0945,0.23053 -0.0945,0.0945 -0.23053,0.0945 h -3.23883 q -0.13227,0 -0.23054,-0.0945 -0.0945,-0.0945 -0.0945,-0.23053 v -2.77398 q 0,-0.0151 -0.0113,-0.0227 -0.008,-0.0113 -0.0189,-0.0113 h -0.69161 q -0.0151,0 -0.0264,0.0113 -0.008,0.008 -0.008,0.0227 v 2.66816 q 0,0.44595 0.31746,0.76341 0.31746,0.31368 0.76341,0.31368 h 3.23883 q 0.44973,0 0.76341,-0.31368 0.31746,-0.31746 0.31746,-0.76341 z" />
      <path
         id="path3757"
         style="font-style:normal;font-variant:normal;font-weight:normal;font-stretch:normal;font-size:7.73993px;font-family:nebula;-inkscape-font-specification:nebula;stroke-width:1.16099"
         d="m 110.72931,140.6921 v 0 q 0,-0.0151 0.008,-0.0227 0.0113,-0.0113 0.0227,-0.0113 h 5.33632 q 0.0113,0 0.0189,0.0113 0.0113,0.008 0.0113,0.0227 v 0.582 q 0,0.0113 -0.0113,0.0227 -0.008,0.008 -0.0189,0.008 h -2.29023 v 3.09899 q 0,0.0151 -0.0113,0.0265 -0.008,0.008 -0.0189,0.008 h -0.6916 q -0.0151,0 -0.0265,-0.008 -0.008,-0.0113 -0.008,-0.0265 v -3.09899 h -2.29023 q -0.0113,0 -0.0227,-0.008 -0.008,-0.0113 -0.008,-0.0227 z" />
      <path
         id="path3759"
         style="font-style:normal;font-variant:normal;font-weight:normal;font-stretch:normal;font-size:7.73993px;font-family:nebula;-inkscape-font-specification:nebula;stroke-width:1.16099"
         d="m 122.66044,140.6921 v 0 q 0,-0.0151 -0.0113,-0.0227 -0.008,-0.0113 -0.0227,-0.0113 h -0.68783 q -0.0151,0 -0.0265,0.0113 -0.008,0.008 -0.008,0.0227 v 2.77398 q 0,0.13605 -0.0945,0.23053 -0.0945,0.0945 -0.23053,0.0945 h -3.23883 q -0.13227,0 -0.23053,-0.0945 -0.0945,-0.0945 -0.0945,-0.23053 v -2.77398 q 0,-0.0151 -0.0113,-0.0227 -0.008,-0.0113 -0.0189,-0.0113 h -0.6916 q -0.0151,0 -0.0265,0.0113 -0.008,0.008 -0.008,0.0227 v 2.66816 q 0,0.44595 0.31746,0.76341 0.31746,0.31368 0.76341,0.31368 h 3.23883 q 0.44973,0 0.76341,-0.31368 0.31746,-0.31746 0.31746,-0.76341 z" />
      <path
         id="path3761"
         style="font-style:normal;font-variant:normal;font-weight:normal;font-stretch:normal;font-size:7.73993px;font-family:nebula;-inkscape-font-specification:nebula;stroke-width:1.16099"
         d="m 129.18723,142.11688 v 0 q 0,0.3288 -0.17385,0.59334 -0.17385,0.26077 -0.46107,0.38927 l 0.0151,0.0302 0.6009,1.26228 q 0.004,0.0151 -0.004,0.0302 -0.008,0.0151 -0.0264,0.0151 h -0.76719 q -0.0189,0 -0.0302,-0.0189 l -0.582,-1.2207 h -3.21238 v 1.20936 q 0,0.0113 -0.0113,0.0227 -0.008,0.008 -0.0227,0.008 h -0.69161 q -0.0113,0 -0.0227,-0.008 -0.008,-0.0113 -0.008,-0.0227 v -3.71501 q 0,-0.0151 0.008,-0.0227 0.0113,-0.0113 0.0227,-0.0113 H 128.11 q 0.44595,0 0.75963,0.31746 0.31746,0.31368 0.31746,0.76341 z m -4.64094,0.43084 v 0 h 3.56385 q 0.13227,0 0.22675,-0.0945 0.0945,-0.0945 0.0945,-0.23053 v -0.59334 q 0,-0.13228 -0.0945,-0.22676 -0.0945,-0.0945 -0.22675,-0.0945 h -3.56385 z" />
      <path
         id="path3763"
         style="font-style:normal;font-variant:normal;font-weight:normal;font-stretch:normal;font-size:7.73993px;font-family:nebula;-inkscape-font-specification:nebula;stroke-width:1.16099"
         d="m 131.07686,141.62936 v 0 q 0,-0.13228 0.0945,-0.22676 0.0945,-0.0983 0.23054,-0.0983 h 4.28568 q 0.0151,0 0.0227,-0.008 0.0113,-0.0113 0.0113,-0.0227 v -0.582 q 0,-0.0151 -0.0113,-0.0227 -0.008,-0.0113 -0.0227,-0.0113 h -4.28568 q -0.44974,0 -0.76719,0.31746 -0.31368,0.31368 -0.31368,0.76341 v 1.61753 q 0,0.44973 0.31368,0.76719 0.31745,0.31368 0.76719,0.31368 h 4.28568 q 0.0151,0 0.0227,-0.008 0.0113,-0.0113 0.0113,-0.0265 v -0.582 q 0,-0.0113 -0.0113,-0.0189 -0.008,-0.0113 -0.0227,-0.0113 h -4.28568 q -0.13606,0 -0.23054,-0.0945 -0.0945,-0.0983 -0.0945,-0.23053 v -0.59335 h 4.07026 q 0.0151,0 0.0227,-0.008 0.0113,-0.0113 0.0113,-0.0265 v -0.58201 q 0,-0.0151 -0.0113,-0.0227 -0.008,-0.0113 -0.0227,-0.0113 h -4.07026 z" />
    </g>
    <ellipse
       style="fill:#e6e6e6;stroke:none;stroke-width:3.7618;stroke-linecap:round;stroke-linejoin:round"
       id="ellipse3465"
       cx="396.58261"
       cy="228.74452"
       rx="23.84861"
       ry="22.05932" />
    <ellipse
       ry="22.05932"
       rx="23.84861"
       cy="228.74452"
       cx="80.188873"
       id="ellipse3471"
       style="fill:#e6e6e6;stroke:none;stroke-width:3.7618;stroke-linecap:round;stroke-linejoin:round" />
    <path
       sodipodi:nodetypes="ccc"
       id="path3485"
       d="m 237.57859,251.06803 v 55.80481 h 11.95742"
       style="fill:none;stroke:#000000;stroke-width:1.5;stroke-linecap:butt;stroke-linejoin:miter;stroke-opacity:1;stroke-miterlimit:4;stroke-dasharray:none" />
    <g
       transform="matrix(1.8304801,0,0,1.8304801,383.24879,214.34287)"
       id="g3851"
       style="fill:currentColor">
      <path
         d="m 7.596,7.304 a 0.802,0.802 0 0 1 0,1.392 L 1.233,12.388 C 0.713,12.69 0,12.345 0,11.692 V 4.308 C 0,3.655 0.713,3.31 1.233,3.612 Z"
         id="path3837" />
      <path
         d="m 15.596,7.304 a 0.802,0.802 0 0 1 0,1.392 L 9.233,12.388 C 8.713,12.69 8,12.345 8,11.692 V 4.308 C 8,3.655 8.713,3.31 9.233,3.612 Z"
         id="path3839" />
    </g>
    <g
       transform="matrix(1.7697165,0,0,1.7697165,223.28713,214.2424)"
       id="g3864"
       style="fill:currentColor">
      <path
         d="M 11,5.466 V 4 H 5 A 4,4 0 0 0 1.416,9.777 0.50043281,0.50043281 0 1 1 0.52,10.223 5,5 0 0 1 5,3 h 6 V 1.534 a 0.25,0.25 0 0 1 0.41,-0.192 l 2.36,1.966 c 0.12,0.1 0.12,0.284 0,0.384 L 11.41,5.658 A 0.25,0.25 0 0 1 11,5.466 Z m 3.81,0.086 A 0.5,0.5 0 0 1 15.48,5.777 5,5 0 0 1 11,13 H 5 v 1.466 A 0.25,0.25 0 0 1 4.59,14.658 L 2.23,12.692 a 0.25,0.25 0 0 1 0,-0.384 L 4.59,10.342 A 0.25,0.25 0 0 1 5,10.534 V 12 h 6 a 4,4 0 0 0 3.585,-5.777 0.5,0.5 0 0 1 0.225,-0.67 z"
         id="path3853" />
    </g>
    <g
       transform="matrix(1.5759166,0,0,1.5759166,66.513368,215.85406)"
       id="g3877"
       style="fill:currentColor">
      <path
         d="M 16,8 A 8,8 0 1 1 0,8 8,8 0 0 1 16,8 Z M 12.03,4.97 A 0.75,0.75 0 0 0 10.95,4.992 L 7.477,9.417 5.384,7.323 a 0.75,0.75 0 0 0 -1.06,1.06 L 6.97,11.03 a 0.75,0.75 0 0 0 1.079,-0.02 l 3.992,-4.99 a 0.75,0.75 0 0 0 -0.01,-1.05 z"
         id="path3866" />
    </g>
  </g>
</svg>
