<?xml version="1.0" encoding="UTF-8" standalone="no"?>
<svg
   xmlns:dc="http://purl.org/dc/elements/1.1/"
   xmlns:cc="http://creativecommons.org/ns#"
   xmlns:rdf="http://www.w3.org/1999/02/22-rdf-syntax-ns#"
   xmlns:svg="http://www.w3.org/2000/svg"
   xmlns="http://www.w3.org/2000/svg"
   xmlns:sodipodi="http://sodipodi.sourceforge.net/DTD/sodipodi-0.dtd"
   xmlns:inkscape="http://www.inkscape.org/namespaces/inkscape"
   sodipodi:docname="about-img.svg"
   inkscape:version="1.0 (4035a4fb49, 2020-05-01)"
   id="svg2963"
   version="1.1"
   viewBox="0 0 80.873573 22.23255"
   height="22.23255mm"
   width="80.873573mm">
  <defs
     id="defs2957" />
  <sodipodi:namedview
     fit-margin-bottom="0"
     fit-margin-right="0"
     fit-margin-left="0"
     fit-margin-top="0"
     showgrid="false"
     inkscape:document-rotation="0"
     inkscape:current-layer="text1731"
     inkscape:document-units="mm"
     inkscape:cy="150.96378"
     inkscape:cx="302.57708"
     inkscape:zoom="1.4"
     inkscape:pageshadow="2"
     inkscape:pageopacity="0.0"
     borderopacity="1.0"
     bordercolor="#666666"
     pagecolor="#ffffff"
     id="base" />
  <metadata
     id="metadata2960">
    <rdf:RDF>
      <cc:Work
         rdf:about="">
        <dc:format>image/svg+xml</dc:format>
        <dc:type
           rdf:resource="http://purl.org/dc/dcmitype/StillImage" />
        <dc:title></dc:title>
      </cc:Work>
    </rdf:RDF>
  </metadata>
  <g
     transform="translate(-24.158137,-219.06772)"
     id="layer1"
     inkscape:groupmode="layer"
     inkscape:label="Layer 1">
    <g
       style="font-size:8.81944px;line-height:1;font-family:Bahnschrift;-inkscape-font-specification:Bahnschrift;text-align:center;letter-spacing:0px;text-anchor:middle;stroke-width:1.09178"
       id="text1731"
       aria-label="hacking the 
future since 
2042">
      <path
         id="path2977"
         style="font-style:normal;font-variant:normal;font-weight:normal;font-stretch:normal;font-size:8.81944px;font-family:nebula;-inkscape-font-specification:nebula;stroke-width:1.09178"
         d="m 33.98096,219.10647 v 0 q 0,-0.0172 -0.01292,-0.0258 -0.0086,-0.0129 -0.02584,-0.0129 h -0.783759 q -0.01723,0 -0.03014,0.0129 -0.0086,0.009 -0.0086,0.0258 v 1.74408 h -4.431252 v -1.74408 q 0,-0.0172 -0.01292,-0.0258 -0.0086,-0.0129 -0.02153,-0.0129 h -0.788065 q -0.01723,0 -0.03015,0.0129 -0.0086,0.009 -0.0086,0.0258 v 4.23316 q 0,0.0129 0.0086,0.0258 0.01292,0.009 0.03015,0.009 h 0.788065 q 0.01292,0 0.02153,-0.009 0.01292,-0.0129 0.01292,-0.0258 v -1.74838 h 4.431252 v 1.74838 q 0,0.0129 0.0086,0.0258 0.01292,0.009 0.03014,0.009 h 0.783759 q 0.01723,0 0.02584,-0.009 0.01292,-0.0129 0.01292,-0.0258 z" />
      <path
         id="path2979"
         style="font-style:normal;font-variant:normal;font-weight:normal;font-stretch:normal;font-size:8.81944px;font-family:nebula;-inkscape-font-specification:nebula;stroke-width:1.09178"
         d="m 35.268564,220.29503 v 0 q 0,-0.50815 0.357429,-0.86558 0.361735,-0.36173 0.874192,-0.36173 h 3.690557 q 0.508151,0 0.869886,0.36173 0.361735,0.35743 0.361735,0.86558 v 3.0403 q 0,0.0172 -0.01292,0.0301 -0.0086,0.009 -0.02584,0.009 H 40.59554 q -0.01292,0 -0.02584,-0.009 -0.0086,-0.0129 -0.0086,-0.0301 v -1.37804 h -4.431251 v 1.37804 q 0,0.0172 -0.01292,0.0301 -0.0086,0.009 -0.02153,0.009 h -0.788065 q -0.01723,0 -0.03014,-0.009 -0.0086,-0.0129 -0.0086,-0.0301 z m 5.292525,0.92587 v 0 -1.04645 q 0,-0.15503 -0.111965,-0.26268 -0.107659,-0.10766 -0.258382,-0.10766 h -3.690557 q -0.155029,0 -0.262688,0.10766 -0.107659,0.10765 -0.107659,0.26268 v 1.04645 z" />
      <path
         id="path2981"
         style="font-style:normal;font-variant:normal;font-weight:normal;font-stretch:normal;font-size:8.81944px;font-family:nebula;-inkscape-font-specification:nebula;stroke-width:1.09178"
         d="m 43.941588,222.6377 v 0 q -0.15503,0 -0.262689,-0.10766 -0.107659,-0.11197 -0.107659,-0.26269 v -2.0929 q 0,-0.15072 0.107659,-0.25838 0.107659,-0.11196 0.262689,-0.11196 h 4.88342 q 0.01723,0 0.02584,-0.009 0.01292,-0.0129 0.01292,-0.0258 v -0.66319 q 0,-0.0172 -0.01292,-0.0258 -0.0086,-0.0129 -0.02584,-0.0129 h -4.88342 q -0.512458,0 -0.874193,0.36173 -0.357428,0.35743 -0.357428,0.86989 v 1.84312 q 0,0.51246 0.357428,0.8742 0.361735,0.35742 0.874193,0.35742 h 4.88342 q 0.01723,0 0.02584,-0.009 0.01292,-0.0129 0.01292,-0.0301 v -0.66318 q 0,-0.0129 -0.01292,-0.0215 -0.0086,-0.0129 -0.02584,-0.0129 z" />
      <path
         id="path2983"
         style="font-style:normal;font-variant:normal;font-weight:normal;font-stretch:normal;font-size:8.81944px;font-family:nebula;-inkscape-font-specification:nebula;stroke-width:1.09178"
         d="m 55.654906,221.75489 v 0 q -0.133497,-0.27561 -0.357428,-0.4737 0.223931,-0.19379 0.357428,-0.46939 l 0.745002,-1.56752 q 0.0086,-0.0215 -0.0043,-0.0344 -0.0086,-0.0172 -0.02584,-0.0172 h -0.874192 q -0.02153,0 -0.03445,0.0215 l -0.641649,1.3479 q -0.08182,0.16364 -0.232544,0.25838 -0.146416,0.0947 -0.322977,0.0947 h -3.251308 v -1.80868 q 0,-0.0172 -0.01292,-0.0258 -0.0086,-0.0129 -0.02584,-0.0129 h -0.783759 q -0.01722,0 -0.03014,0.0129 -0.0086,0.009 -0.0086,0.0258 v 4.22886 q 0,0.0172 0.0086,0.0301 0.01292,0.009 0.03014,0.009 h 0.783759 q 0.01723,0 0.02584,-0.009 0.01292,-0.0129 0.01292,-0.0301 v -1.68379 h 3.251308 q 0.176561,0 0.322977,0.0947 0.150723,0.0947 0.232544,0.25407 l 0.641649,1.3522 q 0.01292,0.0215 0.03445,0.0215 h 0.874192 q 0.01723,0 0.02584,-0.0172 0.01292,-0.0172 0.0043,-0.0345 z" />
      <path
         id="path2985"
         style="font-style:normal;font-variant:normal;font-weight:normal;font-stretch:normal;font-size:8.81944px;font-family:nebula;-inkscape-font-specification:nebula;stroke-width:1.09178"
         d="m 58.557397,219.10647 v 0 q 0,-0.0172 -0.01292,-0.0258 -0.0086,-0.0129 -0.02584,-0.0129 h -0.788065 q -0.01292,0 -0.02584,0.0129 -0.0086,0.009 -0.0086,0.0258 v 4.23316 q 0,0.0129 0.0086,0.0258 0.01292,0.009 0.02584,0.009 h 0.788065 q 0.01723,0 0.02584,-0.009 0.01292,-0.0129 0.01292,-0.0258 z" />
      <path
         id="path2987"
         style="font-style:normal;font-variant:normal;font-weight:normal;font-stretch:normal;font-size:8.81944px;font-family:nebula;-inkscape-font-specification:nebula;stroke-width:1.09178"
         d="m 59.849306,223.33963 v 0 q 0,0.0129 0.0086,0.0258 0.01292,0.009 0.03014,0.009 h 0.788066 q 0.01292,0 0.02153,-0.009 0.01292,-0.0129 0.01292,-0.0258 v -3.16087 q 0,-0.15503 0.107659,-0.26269 0.111965,-0.10766 0.262688,-0.10766 h 3.690557 q 0.155029,0 0.262688,0.10766 0.107659,0.10766 0.107659,0.26269 v 3.16087 q 0,0.0129 0.0086,0.0258 0.01292,0.009 0.03015,0.009 h 0.783758 q 0.01723,0 0.02584,-0.009 0.01292,-0.0129 0.01292,-0.0258 v -3.04029 q 0,-0.50815 -0.361735,-0.86989 -0.357429,-0.36173 -0.869886,-0.36173 h -3.690557 q -0.508151,0 -0.869886,0.36173 -0.361735,0.36174 -0.361735,0.86989 z" />
      <path
         id="path2989"
         style="font-style:normal;font-variant:normal;font-weight:normal;font-stretch:normal;font-size:8.81944px;font-family:nebula;-inkscape-font-specification:nebula;stroke-width:1.09178"
         d="m 68.52233,222.6377 v 0 q -0.15503,0 -0.262689,-0.10766 -0.107659,-0.11197 -0.107659,-0.26269 v -2.0929 q 0,-0.15072 0.107659,-0.25838 0.107659,-0.11196 0.262689,-0.11196 h 4.88342 q 0.01722,0 0.02584,-0.009 0.01292,-0.0129 0.01292,-0.0258 v -0.66319 q 0,-0.0172 -0.01292,-0.0258 -0.0086,-0.0129 -0.02584,-0.0129 h -4.88342 q -0.512458,0 -0.874193,0.36173 -0.357428,0.35743 -0.357428,0.86989 v 1.84312 q 0,0.51246 0.357428,0.8742 0.361735,0.35742 0.874193,0.35742 h 3.811134 q 0.460782,0 0.783759,-0.32297 0.327284,-0.32729 0.327284,-0.78376 v -1.00769 q 0,-0.0172 -0.01292,-0.0258 -0.0086,-0.0129 -0.02584,-0.0129 h -0.788065 q -0.01292,0 -0.02584,0.0129 -0.0086,0.009 -0.0086,0.0258 v 1.00769 q 0,0.15072 -0.111966,0.26269 -0.107659,0.10766 -0.258382,0.10766 z" />
      <path
         id="path2991"
         style="font-style:normal;font-variant:normal;font-weight:normal;font-stretch:normal;font-size:8.81944px;font-family:nebula;-inkscape-font-specification:nebula;stroke-width:1.09178"
         d="m 79.038481,219.10647 v 0 q 0,-0.0172 0.0086,-0.0258 0.01292,-0.0129 0.02584,-0.0129 h 6.08059 q 0.01292,0 0.02153,0.0129 0.01292,0.009 0.01292,0.0258 v 0.66319 q 0,0.0129 -0.01292,0.0258 -0.0086,0.009 -0.02153,0.009 h -2.609658 v 3.53122 q 0,0.0172 -0.01292,0.0301 -0.0086,0.009 -0.02153,0.009 h -0.788066 q -0.01722,0 -0.03014,-0.009 -0.0086,-0.0129 -0.0086,-0.0301 v -3.53122 h -2.609658 q -0.01292,0 -0.02584,-0.009 -0.0086,-0.0129 -0.0086,-0.0258 z" />
      <path
         id="path2993"
         style="font-style:normal;font-variant:normal;font-weight:normal;font-stretch:normal;font-size:8.81944px;font-family:nebula;-inkscape-font-specification:nebula;stroke-width:1.09178"
         d="m 92.633682,219.10647 v 0 q 0,-0.0172 -0.01292,-0.0258 -0.0086,-0.0129 -0.02584,-0.0129 h -0.783758 q -0.01723,0 -0.03015,0.0129 -0.0086,0.009 -0.0086,0.0258 v 1.74408 h -4.431251 v -1.74408 q 0,-0.0172 -0.01292,-0.0258 -0.0086,-0.0129 -0.02153,-0.0129 H 86.51864 q -0.01723,0 -0.03014,0.0129 -0.0086,0.009 -0.0086,0.0258 v 4.23316 q 0,0.0129 0.0086,0.0258 0.01292,0.009 0.03014,0.009 h 0.788066 q 0.01292,0 0.02153,-0.009 0.01292,-0.0129 0.01292,-0.0258 v -1.74838 h 4.431251 v 1.74838 q 0,0.0129 0.0086,0.0258 0.01292,0.009 0.03015,0.009 h 0.783758 q 0.01723,0 0.02584,-0.009 0.01292,-0.0129 0.01292,-0.0258 z" />
      <path
         id="path2995"
         style="font-style:normal;font-variant:normal;font-weight:normal;font-stretch:normal;font-size:8.81944px;font-family:nebula;-inkscape-font-specification:nebula;stroke-width:1.09178"
         d="m 94.782559,220.17445 v 0 q 0,-0.15072 0.107659,-0.25838 0.107659,-0.11196 0.262689,-0.11196 h 4.883423 q 0.0172,0 0.0258,-0.009 0.0129,-0.0129 0.0129,-0.0258 v -0.66319 q 0,-0.0172 -0.0129,-0.0258 -0.009,-0.0129 -0.0258,-0.0129 h -4.883423 q -0.512458,0 -0.874193,0.36173 -0.357428,0.35743 -0.357428,0.86989 v 1.84312 q 0,0.51246 0.357428,0.8742 0.361735,0.35742 0.874193,0.35742 h 4.883423 q 0.0172,0 0.0258,-0.009 0.0129,-0.0129 0.0129,-0.0301 v -0.66318 q 0,-0.0129 -0.0129,-0.0215 -0.009,-0.0129 -0.0258,-0.0129 h -4.883423 q -0.15503,0 -0.262689,-0.10766 -0.107659,-0.11197 -0.107659,-0.26269 v -0.6761 h 4.637957 q 0.01723,0 0.02584,-0.009 0.01292,-0.0129 0.01292,-0.0301 v -0.66318 q 0,-0.0172 -0.01292,-0.0258 -0.0086,-0.0129 -0.02584,-0.0129 h -4.637957 z" />
      <path
         id="path2997"
         style="font-style:normal;font-variant:normal;font-weight:normal;font-stretch:normal;font-size:8.81944px;font-family:nebula;-inkscape-font-specification:nebula;stroke-width:1.09178"
         d="m 25.01941,229.13755 v 0 q 0,-0.15073 0.10766,-0.25839 0.111965,-0.11196 0.262688,-0.11196 h 4.88342 q 0.01723,0 0.02584,-0.009 0.01292,-0.0129 0.01292,-0.0258 v -0.66318 q 0,-0.0172 -0.01292,-0.0258 -0.0086,-0.0129 -0.02584,-0.0129 H 25.26918 q -0.460782,0 -0.788065,0.32728 -0.322978,0.32298 -0.322978,0.77946 v 3.16087 q 0,0.0172 0.0086,0.0301 0.01292,0.009 0.03014,0.009 h 0.788065 q 0.01292,0 0.02153,-0.009 0.01292,-0.0129 0.01292,-0.0301 v -1.37804 h 4.642264 q 0.01292,0 0.02153,-0.009 0.01292,-0.0129 0.01292,-0.0258 v -0.66318 q 0,-0.0172 -0.01292,-0.0258 -0.0086,-0.0129 -0.02153,-0.0129 H 25.01941 Z" />
      <path
         id="path2999"
         style="font-style:normal;font-variant:normal;font-weight:normal;font-stretch:normal;font-size:8.81944px;font-family:nebula;-inkscape-font-specification:nebula;stroke-width:1.09178"
         d="m 37.753338,228.06957 v 0 q 0,-0.0172 -0.01292,-0.0258 -0.0086,-0.0129 -0.02584,-0.0129 h -0.783759 q -0.01723,0 -0.03014,0.0129 -0.0086,0.009 -0.0086,0.0258 v 3.16087 q 0,0.15503 -0.10766,0.26269 -0.107659,0.10766 -0.262688,0.10766 H 32.83116 q -0.150722,0 -0.262688,-0.10766 -0.107659,-0.10766 -0.107659,-0.26269 v -3.16087 q 0,-0.0172 -0.01292,-0.0258 -0.0086,-0.0129 -0.02153,-0.0129 h -0.788065 q -0.01723,0 -0.03015,0.0129 -0.0086,0.009 -0.0086,0.0258 v 3.04029 q 0,0.50815 0.361735,0.86989 0.361735,0.35743 0.869886,0.35743 h 3.690557 q 0.512458,0 0.869886,-0.35743 0.361735,-0.36174 0.361735,-0.86989 z" />
      <path
         id="path3001"
         style="font-style:normal;font-variant:normal;font-weight:normal;font-stretch:normal;font-size:8.81944px;font-family:nebula;-inkscape-font-specification:nebula;stroke-width:1.09178"
         d="m 39.040942,228.06957 v 0 q 0,-0.0172 0.0086,-0.0258 0.01292,-0.0129 0.02584,-0.0129 h 6.08059 q 0.01292,0 0.02153,0.0129 0.01292,0.009 0.01292,0.0258 v 0.66318 q 0,0.0129 -0.01292,0.0258 -0.0086,0.009 -0.02153,0.009 h -2.609658 v 3.53122 q 0,0.0172 -0.01292,0.0301 -0.0086,0.009 -0.02153,0.009 h -0.788065 q -0.01723,0 -0.03015,-0.009 -0.0086,-0.0129 -0.0086,-0.0301 v -3.53122 h -2.609658 q -0.01292,0 -0.02584,-0.009 -0.0086,-0.0129 -0.0086,-0.0258 z" />
      <path
         id="path3003"
         style="font-style:normal;font-variant:normal;font-weight:normal;font-stretch:normal;font-size:8.81944px;font-family:nebula;-inkscape-font-specification:nebula;stroke-width:1.09178"
         d="m 52.636143,228.06957 v 0 q 0,-0.0172 -0.01292,-0.0258 -0.0086,-0.0129 -0.02584,-0.0129 h -0.783759 q -0.01723,0 -0.03014,0.0129 -0.0086,0.009 -0.0086,0.0258 v 3.16087 q 0,0.15503 -0.107659,0.26269 -0.107659,0.10766 -0.262688,0.10766 h -3.690557 q -0.150723,0 -0.262688,-0.10766 -0.107659,-0.10766 -0.107659,-0.26269 v -3.16087 q 0,-0.0172 -0.01292,-0.0258 -0.0086,-0.0129 -0.02153,-0.0129 h -0.788065 q -0.01723,0 -0.03014,0.0129 -0.0086,0.009 -0.0086,0.0258 v 3.04029 q 0,0.50815 0.361735,0.86989 0.361735,0.35743 0.869886,0.35743 h 3.690557 q 0.512458,0 0.869886,-0.35743 0.361735,-0.36174 0.361735,-0.86989 z" />
      <path
         id="path3005"
         style="font-style:normal;font-variant:normal;font-weight:normal;font-stretch:normal;font-size:8.81944px;font-family:nebula;-inkscape-font-specification:nebula;stroke-width:1.09178"
         d="m 60.073239,229.69307 v 0 q 0,0.37465 -0.198093,0.6761 -0.198093,0.29714 -0.525377,0.44355 l 0.01723,0.0344 0.684712,1.43833 q 0.0043,0.0172 -0.0043,0.0344 -0.0086,0.0172 -0.03014,0.0172 h -0.874192 q -0.02153,0 -0.03445,-0.0215 l -0.663181,-1.39095 H 54.78502 v 1.37803 q 0,0.0129 -0.01292,0.0258 -0.0086,0.009 -0.02584,0.009 h -0.788065 q -0.01292,0 -0.02584,-0.009 -0.0086,-0.0129 -0.0086,-0.0258 v -4.23315 q 0,-0.0172 0.0086,-0.0258 0.01292,-0.0129 0.02584,-0.0129 h 4.887726 q 0.508152,0 0.86558,0.36173 0.361735,0.35743 0.361735,0.86989 z m -5.288219,0.49092 v 0 h 4.060904 q 0.150723,0 0.258382,-0.10766 0.10766,-0.10766 0.10766,-0.26269 v -0.67609 q 0,-0.15073 -0.10766,-0.25839 -0.107659,-0.10766 -0.258382,-0.10766 H 54.78502 Z" />
      <path
         id="path3007"
         style="font-style:normal;font-variant:normal;font-weight:normal;font-stretch:normal;font-size:8.81944px;font-family:nebula;-inkscape-font-specification:nebula;stroke-width:1.09178"
         d="m 62.226423,229.13755 v 0 q 0,-0.15073 0.107659,-0.25839 0.107659,-0.11196 0.262688,-0.11196 h 4.88342 q 0.01723,0 0.02584,-0.009 0.01292,-0.0129 0.01292,-0.0258 v -0.66318 q 0,-0.0172 -0.01292,-0.0258 -0.0086,-0.0129 -0.02584,-0.0129 h -4.88342 q -0.512458,0 -0.874192,0.36173 -0.357429,0.35743 -0.357429,0.86989 v 1.84312 q 0,0.51246 0.357429,0.8742 0.361734,0.35743 0.874192,0.35743 h 4.88342 q 0.01723,0 0.02584,-0.009 0.01292,-0.0129 0.01292,-0.0301 v -0.66318 q 0,-0.0129 -0.01292,-0.0215 -0.0086,-0.0129 -0.02584,-0.0129 h -4.88342 q -0.155029,0 -0.262688,-0.10766 -0.107659,-0.11197 -0.107659,-0.26269 v -0.6761 h 4.637957 q 0.01722,0 0.02584,-0.009 0.01292,-0.0129 0.01292,-0.0301 v -0.66318 q 0,-0.0172 -0.01292,-0.0258 -0.0086,-0.0129 -0.02584,-0.0129 h -4.637957 z" />
      <path
         id="path3009"
         style="font-style:normal;font-variant:normal;font-weight:normal;font-stretch:normal;font-size:8.81944px;font-family:nebula;-inkscape-font-specification:nebula;stroke-width:1.09178"
         d="m 73.974191,229.13755 v 0 q 0,-0.15503 0.107659,-0.26269 0.107659,-0.10766 0.258382,-0.10766 h 4.642264 q 0.01292,0 0.02153,-0.009 0.01292,-0.0129 0.01292,-0.0258 v -0.66749 q 0,-0.0129 -0.01292,-0.0215 -0.0086,-0.0129 -0.02153,-0.0129 h -4.642264 q -0.508151,0 -0.869886,0.36173 -0.357428,0.35743 -0.357428,0.86558 v 0.0646 q 0,0.50815 0.357428,0.86988 0.361735,0.35743 0.869886,0.35743 h 3.694863 q 0.150723,0 0.258382,0.11197 0.107659,0.10766 0.107659,0.25838 v 0.31006 q 0,0.15072 -0.107659,0.25838 -0.107659,0.10766 -0.258382,0.10766 h -4.642264 q -0.01292,0 -0.02584,0.0129 -0.0086,0.009 -0.0086,0.0258 v 0.66318 q 0,0.0172 0.0086,0.0301 0.01292,0.009 0.02584,0.009 h 4.642264 q 0.508151,0 0.86558,-0.36174 0.361735,-0.36173 0.361735,-0.86989 v -0.0603 q 0,-0.51246 -0.361735,-0.86989 -0.357429,-0.36174 -0.86558,-0.36174 h -3.694863 q -0.150723,0 -0.258382,-0.10765 -0.107659,-0.10766 -0.107659,-0.26269 z" />
      <path
         id="path3011"
         style="font-style:normal;font-variant:normal;font-weight:normal;font-stretch:normal;font-size:8.81944px;font-family:nebula;-inkscape-font-specification:nebula;stroke-width:1.09178"
         d="m 81.415593,228.06957 v 0 q 0,-0.0172 -0.01292,-0.0258 -0.0086,-0.0129 -0.02584,-0.0129 h -0.788065 q -0.01292,0 -0.02584,0.0129 -0.0086,0.009 -0.0086,0.0258 v 4.23315 q 0,0.0129 0.0086,0.0258 0.01292,0.009 0.02584,0.009 h 0.788065 q 0.01723,0 0.02584,-0.009 0.01292,-0.0129 0.01292,-0.0258 z" />
      <path
         id="path3013"
         style="font-style:normal;font-variant:normal;font-weight:normal;font-stretch:normal;font-size:8.81944px;font-family:nebula;-inkscape-font-specification:nebula;stroke-width:1.09178"
         d="m 82.707503,232.30272 v 0 q 0,0.0129 0.0086,0.0258 0.01292,0.009 0.03014,0.009 h 0.788065 q 0.01292,0 0.02153,-0.009 0.01292,-0.0129 0.01292,-0.0258 v -3.16087 q 0,-0.15503 0.10766,-0.26269 0.111965,-0.10766 0.262688,-0.10766 h 3.690557 q 0.155029,0 0.262688,0.10766 0.107659,0.10766 0.107659,0.26269 v 3.16087 q 0,0.0129 0.0086,0.0258 0.01292,0.009 0.03014,0.009 h 0.783759 q 0.01723,0 0.02584,-0.009 0.01292,-0.0129 0.01292,-0.0258 v -3.04029 q 0,-0.50815 -0.361735,-0.86989 -0.357429,-0.36173 -0.869886,-0.36173 h -3.690557 q -0.508151,0 -0.869886,0.36173 -0.361735,0.36174 -0.361735,0.86989 z" />
      <path
         id="path3015"
         style="font-style:normal;font-variant:normal;font-weight:normal;font-stretch:normal;font-size:8.81944px;font-family:nebula;-inkscape-font-specification:nebula;stroke-width:1.09178"
         d="m 91.380526,231.60079 v 0 q -0.155029,0 -0.262688,-0.10766 -0.107659,-0.11197 -0.107659,-0.26269 v -2.09289 q 0,-0.15073 0.107659,-0.25839 0.107659,-0.11196 0.262688,-0.11196 h 4.883421 q 0.01722,0 0.02584,-0.009 0.01292,-0.0129 0.01292,-0.0258 v -0.66318 q 0,-0.0172 -0.01292,-0.0258 -0.0086,-0.0129 -0.02584,-0.0129 h -4.883421 q -0.512457,0 -0.874192,0.36173 -0.357429,0.35743 -0.357429,0.86989 v 1.84312 q 0,0.51246 0.357429,0.8742 0.361735,0.35743 0.874192,0.35743 h 4.883421 q 0.01722,0 0.02584,-0.009 0.01292,-0.0129 0.01292,-0.0301 v -0.66318 q 0,-0.0129 -0.01292,-0.0215 -0.0086,-0.0129 -0.02584,-0.0129 z" />
      <path
         id="path3017"
         style="font-style:normal;font-variant:normal;font-weight:normal;font-stretch:normal;font-size:8.81944px;font-family:nebula;-inkscape-font-specification:nebula;stroke-width:1.09178"
         d="m 98.451585,229.13755 v 0 q 0,-0.15073 0.107659,-0.25839 0.107659,-0.11196 0.262689,-0.11196 h 4.883417 q 0.0172,0 0.0258,-0.009 0.0129,-0.0129 0.0129,-0.0258 v -0.66318 q 0,-0.0172 -0.0129,-0.0258 -0.009,-0.0129 -0.0258,-0.0129 h -4.883417 q -0.512458,0 -0.874193,0.36173 -0.357428,0.35743 -0.357428,0.86989 v 1.84312 q 0,0.51246 0.357428,0.8742 0.361735,0.35743 0.874193,0.35743 h 4.883417 q 0.0172,0 0.0258,-0.009 0.0129,-0.0129 0.0129,-0.0301 v -0.66318 q 0,-0.0129 -0.0129,-0.0215 -0.009,-0.0129 -0.0258,-0.0129 h -4.883417 q -0.15503,0 -0.262689,-0.10766 -0.107659,-0.11197 -0.107659,-0.26269 v -0.6761 h 4.637955 q 0.0172,0 0.0258,-0.009 0.0129,-0.0129 0.0129,-0.0301 v -0.66318 q 0,-0.0172 -0.0129,-0.0258 -0.009,-0.0129 -0.0258,-0.0129 h -4.637955 z" />
      <path
         id="path3019"
         style="font-style:normal;font-variant:normal;font-weight:normal;font-stretch:normal;font-size:8.81944px;font-family:nebula;-inkscape-font-specification:nebula;stroke-width:1.09178"
         d="m 57.157828,238.10494 v 0 q 0,-0.15503 -0.111965,-0.26269 -0.107659,-0.10765 -0.258382,-0.10765 h -4.637958 q -0.01723,0 -0.03014,-0.009 -0.0086,-0.0129 -0.0086,-0.0301 v -0.66318 q 0,-0.0172 0.0086,-0.0258 0.01292,-0.0129 0.03014,-0.0129 h 4.637958 q 0.508151,0 0.869886,0.36173 0.361735,0.36174 0.361735,0.86989 v 0.0603 q 0,0.51246 -0.361735,0.87419 -0.361735,0.35743 -0.869886,0.35743 h -3.690557 q -0.155029,0 -0.262688,0.10766 -0.107659,0.10766 -0.107659,0.26269 v 0.6761 h 5.008305 q 0.01292,0 0.02153,0.0129 0.01292,0.009 0.01292,0.0258 v 0.66318 q 0,0.0129 -0.01292,0.0258 -0.0086,0.009 -0.02153,0.009 H 51.90406 q -0.01723,0 -0.03014,-0.009 -0.0086,-0.0129 -0.0086,-0.0258 v -1.25746 q 0,-0.50815 0.357429,-0.86558 0.361734,-0.36174 0.874192,-0.36174 h 3.690557 q 0.150723,0 0.258382,-0.10766 0.111965,-0.11196 0.111965,-0.26269 z" />
      <path
         id="path3021"
         style="font-style:normal;font-variant:normal;font-weight:normal;font-stretch:normal;font-size:8.81944px;font-family:nebula;-inkscape-font-specification:nebula;stroke-width:1.09178"
         d="m 64.228883,236.9939 v 0 q 0.512458,0 0.869886,0.36173 0.361735,0.35743 0.361735,0.86989 v 1.84313 q 0,0.51245 -0.361735,0.87419 -0.357428,0.35743 -0.869886,0.35743 h -3.690556 q -0.508152,0 -0.869887,-0.35743 -0.361734,-0.36174 -0.361734,-0.87419 v -1.84313 q 0,-0.51246 0.361734,-0.86989 0.361735,-0.36173 0.869887,-0.36173 z m 0.370348,1.10674 v 0 q 0,-0.15073 -0.107659,-0.25839 -0.10766,-0.11196 -0.262689,-0.11196 h -3.690556 q -0.150723,0 -0.262689,0.11196 -0.107659,0.10766 -0.107659,0.25839 v 2.09289 q 0,0.15072 0.107659,0.26269 0.111966,0.10766 0.262689,0.10766 h 3.690556 q 0.155029,0 0.262689,-0.10766 0.107659,-0.11197 0.107659,-0.26269 z" />
      <path
         id="path3023"
         style="font-style:normal;font-variant:normal;font-weight:normal;font-stretch:normal;font-size:8.81944px;font-family:nebula;-inkscape-font-specification:nebula;stroke-width:1.09178"
         d="m 72.040633,237.02835 v 0 q 0,-0.0129 0.0086,-0.0215 0.01292,-0.0129 0.03014,-0.0129 h 0.783759 q 0.01723,0 0.02584,0.0129 0.01292,0.009 0.01292,0.0215 v 4.23316 q 0,0.0172 -0.01292,0.0301 -0.0086,0.009 -0.02584,0.009 H 72.07939 q -0.01723,0 -0.03014,-0.009 -0.0086,-0.0129 -0.0086,-0.0301 v -1.37804 h -4.060904 q -0.508151,0 -0.869886,-0.35743 -0.361735,-0.36173 -0.361735,-0.87419 v -1.6235 q 0,-0.0129 0.0086,-0.0215 0.01292,-0.0129 0.03014,-0.0129 h 0.788065 q 0.01292,0 0.02153,0.0129 0.01292,0.009 0.01292,0.0215 v 1.74839 q 0,0.15072 0.10766,0.26268 0.111965,0.10766 0.262688,0.10766 h 4.060904 z" />
      <path
         id="path3025"
         style="font-style:normal;font-variant:normal;font-weight:normal;font-stretch:normal;font-size:8.81944px;font-family:nebula;-inkscape-font-specification:nebula;stroke-width:1.09178"
         d="m 79.482036,238.10494 v 0 q 0,-0.15503 -0.111966,-0.26269 -0.107659,-0.10765 -0.258382,-0.10765 h -4.637957 q -0.01723,0 -0.03015,-0.009 -0.0086,-0.0129 -0.0086,-0.0301 v -0.66318 q 0,-0.0172 0.0086,-0.0258 0.01292,-0.0129 0.03015,-0.0129 h 4.637957 q 0.508151,0 0.869886,0.36173 0.361735,0.36174 0.361735,0.86989 v 0.0603 q 0,0.51246 -0.361735,0.87419 -0.361735,0.35743 -0.869886,0.35743 h -3.690557 q -0.155029,0 -0.262688,0.10766 -0.107659,0.10766 -0.107659,0.26269 v 0.6761 h 5.008305 q 0.01292,0 0.02153,0.0129 0.01292,0.009 0.01292,0.0258 v 0.66318 q 0,0.0129 -0.01292,0.0258 -0.0086,0.009 -0.02153,0.009 h -5.830821 q -0.01723,0 -0.03015,-0.009 -0.0086,-0.0129 -0.0086,-0.0258 v -1.25746 q 0,-0.50815 0.357429,-0.86558 0.361735,-0.36174 0.874192,-0.36174 h 3.690557 q 0.150723,0 0.258382,-0.10766 0.111966,-0.11196 0.111966,-0.26269 z" />
    </g>
  </g>
</svg>
