<?xml version="1.0" encoding="UTF-8" standalone="no"?>
<svg
   xmlns:dc="http://purl.org/dc/elements/1.1/"
   xmlns:cc="http://creativecommons.org/ns#"
   xmlns:rdf="http://www.w3.org/1999/02/22-rdf-syntax-ns#"
   xmlns:svg="http://www.w3.org/2000/svg"
   xmlns="http://www.w3.org/2000/svg"
   xmlns:sodipodi="http://sodipodi.sourceforge.net/DTD/sodipodi-0.dtd"
   xmlns:inkscape="http://www.inkscape.org/namespaces/inkscape"
   sodipodi:docname="logo.svg"
   inkscape:version="1.0 (4035a4fb49, 2020-05-01)"
   id="svg3053"
   version="1.1"
   viewBox="0 0 241.7251 12.952324"
   height="12.952324mm"
   width="241.7251mm">
  <defs
     id="defs3047" />
  <sodipodi:namedview
     fit-margin-bottom="0"
     fit-margin-right="0"
     fit-margin-left="0"
     fit-margin-top="0"
     showgrid="false"
     inkscape:document-rotation="0"
     inkscape:current-layer="layer1"
     inkscape:document-units="mm"
     inkscape:cy="762.27754"
     inkscape:cx="-83.199456"
     inkscape:zoom="0.35"
     inkscape:pageshadow="2"
     inkscape:pageopacity="0.0"
     borderopacity="1.0"
     bordercolor="#666666"
     pagecolor="#ffffff"
     id="base" />
  <metadata
     id="metadata3050">
    <rdf:RDF>
      <cc:Work
         rdf:about="">
        <dc:format>image/svg+xml</dc:format>
        <dc:type
           rdf:resource="http://purl.org/dc/dcmitype/StillImage" />
        <dc:title></dc:title>
      </cc:Work>
    </rdf:RDF>
  </metadata>
  <g
     transform="translate(-127.84652,53.519266)"
     id="layer1"
     inkscape:groupmode="layer"
     inkscape:label="Layer 1">
    <g
       style="fill:#f9f9f9"
       inkscape:export-ydpi="300.07297"
       inkscape:export-xdpi="300.07297"
       id="g1721"
       transform="matrix(10.920443,0,0,10.920443,-11393.46,-5505.3876)">
      <path
         style="fill:#f9f9f9;stroke:#000000;stroke-width:0.00166187;stroke-linecap:butt;stroke-linejoin:miter;stroke-miterlimit:4;stroke-dasharray:none;stroke-opacity:1"
         d="m 1069.6671,499.23592 c -0.1539,10e-5 -0.3351,0.12993 -0.3328,0.34007 v 0.53148 c 0,0.12752 0.1156,0.31309 0.3556,0.31285 h 1.0047 c 0.1171,-1e-4 0.1935,-0.0595 0.2409,-0.11077 l 0.1331,-0.154 -0.1446,-0.14949 -0.1479,0.16747 c -0.019,0.0215 -0.04,0.0412 -0.074,0.0447 h -1.0124 c -0.076,1.6e-4 -0.1179,-0.036 -0.1205,-0.11466 v -0.56353 c 0,-0.0492 0.035,-0.10166 0.1147,-0.0991 l 1.0102,-0.002 c 0.027,8.2e-4 0.051,0.0187 0.068,0.0349 l 0.7241,0.85479 c 0.047,0.0466 0.1312,0.093 0.2208,0.0913 h 1.0144 c 0.2179,9.1e-4 0.3487,-0.16361 0.3488,-0.34932 v -0.48822 c 10e-5,-0.21436 -0.1668,-0.3474 -0.3469,-0.34639 l -1.0109,5.1e-4 c -0.085,-0.003 -0.1725,0.0304 -0.2454,0.11328 l -0.1348,0.15465 0.1547,0.15822 0.1403,-0.17091 c 0.02,-0.0231 0.044,-0.0524 0.085,-0.0528 l 1.0164,-3.4e-4 c 0.052,-0.003 0.1046,0.0419 0.105,0.10008 v 0.57134 c 0,0.0523 -0.033,0.1071 -0.1113,0.10793 l -1.0085,-6.7e-4 c -0.023,-9.1e-4 -0.044,-0.008 -0.063,-0.0242 l -0.7236,-0.8551 c -0.06,-0.0592 -0.1213,-0.0987 -0.2348,-0.10069 z"
         id="path1685"
         sodipodi:nodetypes="ccccccccccccccccccccccccccccccccccccc" />
      <path
         id="path1687"
         style="font-style:normal;font-variant:normal;font-weight:normal;font-stretch:normal;font-size:10.5833px;line-height:1.25;font-family:Nebula;-inkscape-font-specification:Nebula;text-align:start;letter-spacing:0px;text-anchor:start;fill:#f9f9f9;stroke-width:0.0605791"
         d="m 1055.2586,499.54095 v 0 q 0,-0.0414 0.03,-0.071 0.031,-0.0308 0.072,-0.0308 h 1.3417 q 0.01,0 0.01,-0.003 0,-0.004 0,-0.007 v -0.18221 q 0,-0.005 0,-0.007 0,-0.004 -0.01,-0.004 h -1.3749 q -0.1266,0 -0.2165,0.0899 -0.089,0.0888 -0.089,0.21416 v 0.86846 q 0,0.005 0,0.008 0,0.003 0.01,0.003 h 0.2166 q 0,0 0.01,-0.003 0,-0.004 0,-0.008 v -0.37862 h 1.2754 q 0,0 0.01,-0.003 0,-0.004 0,-0.007 v -0.1822 q 0,-0.005 0,-0.007 0,-0.004 -0.01,-0.004 h -1.2754 z" />
      <path
         id="path1689"
         style="font-style:normal;font-variant:normal;font-weight:normal;font-stretch:normal;font-size:10.5833px;line-height:1.25;font-family:Nebula;-inkscape-font-specification:Nebula;text-align:start;letter-spacing:0px;text-anchor:start;fill:#f9f9f9;stroke-width:0.0605791"
         d="m 1058.7572,499.24751 v 0 q 0,-0.005 0,-0.007 0,-0.004 -0.01,-0.004 h -0.2153 q -0.01,0 -0.01,0.004 0,0.003 0,0.007 v 0.86846 q 0,0.0426 -0.03,0.0722 -0.03,0.0296 -0.072,0.0296 h -1.0139 q -0.041,0 -0.072,-0.0296 -0.03,-0.0296 -0.03,-0.0722 v -0.86846 q 0,-0.005 0,-0.007 0,-0.004 -0.01,-0.004 h -0.2165 q -0.01,0 -0.01,0.004 0,0.003 0,0.007 v 0.83533 q 0,0.13962 0.099,0.239 0.099,0.0982 0.239,0.0982 h 1.0139 q 0.1409,0 0.2391,-0.0982 0.099,-0.0994 0.099,-0.239 z" />
      <path
         id="path1691"
         style="font-style:normal;font-variant:normal;font-weight:normal;font-stretch:normal;font-size:10.5833px;line-height:1.25;font-family:Nebula;-inkscape-font-specification:Nebula;text-align:start;letter-spacing:0px;text-anchor:start;fill:#f9f9f9;stroke-width:0.0605791"
         d="m 1059.111,499.24751 v 0 q 0,-0.005 0,-0.007 0,-0.004 0.01,-0.004 h 1.6707 q 0,0 0.01,0.004 0,0.003 0,0.007 v 0.18221 q 0,0.004 0,0.007 0,0.003 -0.01,0.003 h -0.717 v 0.97021 q 0,0.005 0,0.008 0,0.003 -0.01,0.003 h -0.2164 q -0.01,0 -0.01,-0.003 0,-0.004 0,-0.008 v -0.97021 h -0.7171 q 0,0 -0.01,-0.003 0,-0.004 0,-0.007 z" />
      <path
         id="path1693"
         style="font-style:normal;font-variant:normal;font-weight:normal;font-stretch:normal;font-size:10.5833px;line-height:1.25;font-family:Nebula;-inkscape-font-specification:Nebula;text-align:start;letter-spacing:0px;text-anchor:start;fill:#f9f9f9;stroke-width:0.0605791"
         d="m 1062.8464,499.24751 v 0 q 0,-0.005 0,-0.007 0,-0.004 -0.01,-0.004 h -0.2154 q -0.01,0 -0.01,0.004 0,0.003 0,0.007 v 0.86846 q 0,0.0426 -0.03,0.0722 -0.03,0.0296 -0.072,0.0296 h -1.014 q -0.042,0 -0.072,-0.0296 -0.03,-0.0296 -0.03,-0.0722 v -0.86846 q 0,-0.005 0,-0.007 0,-0.004 -0.01,-0.004 h -0.2166 q -0.01,0 -0.01,0.004 0,0.003 0,0.007 v 0.83533 q 0,0.13962 0.099,0.239 0.099,0.0982 0.2391,0.0982 h 1.0139 q 0.1408,0 0.239,-0.0982 0.099,-0.0994 0.099,-0.239 z" />
      <path
         id="path1695"
         style="font-style:normal;font-variant:normal;font-weight:normal;font-stretch:normal;font-size:10.5833px;line-height:1.25;font-family:Nebula;-inkscape-font-specification:Nebula;text-align:start;letter-spacing:0px;text-anchor:start;fill:#f9f9f9;stroke-width:0.0605791"
         d="m 1064.8897,499.69358 v 0 q 0,0.10293 -0.055,0.18576 -0.055,0.0816 -0.1443,0.12186 l 0.01,0.009 0.188,0.39518 q 0,0.005 0,0.009 0,0.005 -0.01,0.005 h -0.2401 q -0.01,0 -0.01,-0.006 l -0.1822,-0.38216 h -1.0058 v 0.37861 q 0,0.004 0,0.007 0,0.003 -0.01,0.003 h -0.2165 q 0,0 -0.01,-0.003 0,-0.004 0,-0.007 v -1.16306 q 0,-0.005 0,-0.007 0,-0.004 0.01,-0.004 h 1.3429 q 0.1396,0 0.2378,0.0994 0.099,0.0982 0.099,0.23899 z m -1.4529,0.13488 v 0 h 1.1157 q 0.042,0 0.071,-0.0296 0.03,-0.0296 0.03,-0.0722 v -0.18575 q 0,-0.0414 -0.03,-0.071 -0.029,-0.0296 -0.071,-0.0296 h -1.1157 z" />
      <path
         id="path1697"
         style="font-style:normal;font-variant:normal;font-weight:normal;font-stretch:normal;font-size:10.5833px;line-height:1.25;font-family:Nebula;-inkscape-font-specification:Nebula;text-align:start;letter-spacing:0px;text-anchor:start;fill:#f9f9f9;stroke-width:0.0605791"
         d="m 1065.4813,499.54095 v 0 q 0,-0.0414 0.03,-0.071 0.03,-0.0308 0.072,-0.0308 h 1.3417 q 0.01,0 0.01,-0.003 0,-0.004 0,-0.007 v -0.18221 q 0,-0.005 0,-0.007 0,-0.004 -0.01,-0.004 h -1.3417 q -0.1408,0 -0.2402,0.0994 -0.098,0.0982 -0.098,0.23901 v 0.50639 q 0,0.1408 0.098,0.24019 0.099,0.0982 0.2402,0.0982 h 1.3417 q 0.01,0 0.01,-0.003 0,-0.004 0,-0.008 v -0.18222 q 0,-0.004 0,-0.005 0,-0.004 -0.01,-0.004 h -1.3417 q -0.043,0 -0.072,-0.0296 -0.03,-0.0308 -0.03,-0.0722 v -0.18575 h 1.2743 q 0.01,0 0.01,-0.003 0,-0.004 0,-0.008 v -0.18223 q 0,-0.005 0,-0.007 0,-0.004 -0.01,-0.004 h -1.2743 z" />
      <path
         id="path1699"
         style="font-style:normal;font-variant:normal;font-weight:normal;font-stretch:normal;font-size:10.5833px;line-height:1.25;font-family:Nebula;-inkscape-font-specification:Nebula;text-align:start;letter-spacing:0px;text-anchor:start;fill:#f9f9f9;stroke-width:0.0605791"
         d="m 1067.2892,499.24751 v 0 q 0,-0.005 0,-0.007 0,-0.004 0.01,-0.004 h 1.6707 q 0,0 0.01,0.004 0,0.003 0,0.007 v 0.18221 q 0,0.004 0,0.007 0,0.003 -0.01,0.003 h -0.717 v 0.97021 q 0,0.005 0,0.008 0,0.003 -0.01,0.003 h -0.2166 q -0.01,0 -0.01,-0.003 0,-0.004 0,-0.008 v -0.97021 h -0.717 q 0,0 -0.01,-0.003 0,-0.004 0,-0.007 z" />
      <path
         id="path1701"
         style="font-style:normal;font-variant:normal;font-weight:normal;font-stretch:normal;font-size:10.5833px;line-height:1.25;font-family:Nebula;-inkscape-font-specification:Nebula;text-align:start;letter-spacing:0px;text-anchor:start;fill:#f9f9f9;stroke-width:0.0605791"
         d="m 1075.1124,500.22719 v 0 q 0,-0.004 0,-0.005 0,-0.004 -0.01,-0.004 h -1.3418 q -0.043,0 -0.072,-0.0296 -0.029,-0.0308 -0.029,-0.0722 v -0.86845 q 0,-0.005 0,-0.007 0,-0.004 -0.01,-0.004 h -0.2166 q 0,0 -0.01,0.004 0,0.003 0,0.007 v 0.83414 q 0,0.1408 0.098,0.24019 0.099,0.0982 0.2402,0.0982 h 1.3418 q 0,0 0.01,-0.003 0,-0.004 0,-0.007 z" />
      <path
         id="path1703"
         style="font-style:normal;font-variant:normal;font-weight:normal;font-stretch:normal;font-size:10.5833px;line-height:1.25;font-family:Nebula;-inkscape-font-specification:Nebula;text-align:start;letter-spacing:0px;text-anchor:start;fill:#f9f9f9;stroke-width:0.0605791"
         d="m 1075.704,499.54095 v 0 q 0,-0.0426 0.03,-0.0722 0.03,-0.0296 0.071,-0.0296 h 1.2755 q 0,0 0.01,-0.003 0,-0.004 0,-0.007 v -0.18339 q 0,-0.004 0,-0.005 0,-0.004 -0.01,-0.004 h -1.2755 q -0.1396,0 -0.239,0.0994 -0.098,0.0982 -0.098,0.23782 v 0.0178 q 0,0.13962 0.098,0.239 0.099,0.0982 0.239,0.0982 h 1.0152 q 0.042,0 0.071,0.0308 0.029,0.0296 0.029,0.071 v 0.0852 q 0,0.0414 -0.029,0.071 -0.03,0.0296 -0.071,0.0296 h -1.2755 q 0,0 -0.01,0.004 0,0.003 0,0.007 v 0.18222 q 0,0.005 0,0.008 0,0.003 0.01,0.003 h 1.2755 q 0.1396,0 0.2378,-0.0994 0.099,-0.0994 0.099,-0.239 v -0.0166 q 0,-0.1408 -0.099,-0.239 -0.098,-0.0994 -0.2378,-0.0994 h -1.0152 q -0.041,0 -0.071,-0.0296 -0.03,-0.0296 -0.03,-0.0722 z" />
    </g>
  </g>
</svg>
